<?xml version='1.0' encoding='iso-8859-1'?>
<!DOCTYPE svg PUBLIC '-//W3C//DTD SVG 1.1//EN' 'http://www.w3.org/Graphics/SVG/1.1/DTD/svg11.dtd'>
<svg version="1.1" xmlns="http://www.w3.org/2000/svg" viewBox="0 0 438.034 438.034" xmlns:xlink="http://www.w3.org/1999/xlink" enable-background="new 0 0 438.034 438.034">
  <g>
    <path d="M94.034,204.915c0-25.925-21.092-47.017-47.017-47.017S0,178.99,0,204.915c0,15.018,7.086,28.403,18.081,37.017   C7.086,250.546,0,263.931,0,278.949v44.068c0,5.523,4.477,10,10,10h74.034c5.523,0,10-4.477,10-10v-44.068   c0-15.018-7.086-28.403-18.081-37.017C86.948,233.319,94.034,219.933,94.034,204.915z M74.034,278.949v34.068H20v-34.068   c0-14.897,12.12-27.017,27.017-27.017S74.034,264.052,74.034,278.949z M20,204.915c0-14.897,12.12-27.017,27.017-27.017   s27.017,12.12,27.017,27.017s-12.12,27.017-27.017,27.017S20,219.813,20,204.915z"/>
    <path d="m208.701,152.034c0-25.925-21.092-47.017-47.017-47.017s-47.017,21.092-47.017,47.017c0,15.018 7.086,28.403 18.081,37.017-10.995,8.614-18.081,21.999-18.081,37.017v96.949c0,5.523 4.477,10 10,10h74.034c5.523,0 10-4.477 10-10v-96.949c0-15.018-7.086-28.403-18.081-37.017 10.995-8.614 18.081-21.999 18.081-37.017zm-20,74.034v86.949h-54.034v-86.949c0-14.897 12.12-27.017 27.017-27.017s27.017,12.12 27.017,27.017zm-54.034-74.034c0-14.897 12.12-27.017 27.017-27.017s27.017,12.12 27.017,27.017-12.12,27.017-27.017,27.017-27.017-12.12-27.017-27.017z"/>
    <path d="m323.367,219.017c0-25.925-21.092-47.017-47.017-47.017s-47.017,21.092-47.017,47.017c0,15.018 7.086,28.403 18.081,37.017-10.995,8.614-18.081,21.999-18.081,37.017v29.966c0,5.523 4.477,10 10,10h74.034c5.523,0 10-4.477 10-10v-29.966c0-15.018-7.086-28.403-18.081-37.017 10.995-8.614 18.081-21.999 18.081-37.017zm-20,74.034v19.966h-54.034v-19.966c0-14.897 12.12-27.017 27.017-27.017s27.017,12.12 27.017,27.017zm-54.034-74.034c0-14.897 12.12-27.017 27.017-27.017s27.017,12.12 27.017,27.017c0,14.897-12.12,27.017-27.017,27.017s-27.017-12.12-27.017-27.017z"/>
    <path d="m419.953,256.034c10.995-8.614 18.081-21.999 18.081-37.017 0-25.925-21.092-47.017-47.017-47.017s-47.017,21.092-47.017,47.017c0,15.018 7.086,28.403 18.081,37.017-10.995,8.614-18.081,21.999-18.081,37.017v29.966c0,5.523 4.477,10 10,10h74.034c5.523,0 10-4.477 10-10v-29.966c0-15.018-7.086-28.403-18.081-37.017zm-55.953-37.017c0-14.897 12.119-27.017 27.017-27.017s27.017,12.12 27.017,27.017c0,14.897-12.12,27.017-27.017,27.017s-27.017-12.12-27.017-27.017zm54.034,94h-54.034v-19.966c0-14.897 12.12-27.017 27.017-27.017s27.017,12.12 27.017,27.017v19.966z"/>
  </g>
</svg>
